<svg class="logo" version="1.1" viewBox="0 0 12.7 12.7" xmlns="http://www.w3.org/2000/svg">
<g transform="translate(-38.993 -61.053)">
  <g transform="matrix(2.6751 0 0 2.6751 -292.57 -301.04)">
  <path d="m127.52 139.42-0.31942-0.2406 0.071-0.077 0.63884 0.28871 0.10647-0.14435-0.24843-0.52931-0.12276-0.0507 0.0606-0.13218 0.0355-0.13473v-0.077l0.15971-0.0674-0.17745-0.61592 9e-3 -0.11548 0.18633-0.12512-0.43476-0.72178-0.0887 0.19248-0.33717-0.17323 0.22182 9e-3 0.0798-0.31758-0.25731-0.25985-0.69208-0.0866-0.24844 0.1636-0.49687-0.12511-0.4259 0.25985-0.39926 0.46193-0.22183 0.58705 0.22183 0.27909 0.27505 0.75066 0.28393 0.23097 0.15083-0.0481 0.1331-0.16361 0.0177-0.22135-0.0266-0.30796 0.0621-0.1251 0.24845 0.46193 0.20407 0.17323-0.0976 0.36571-0.31941 0.13473-0.46139 0.0192z" fill="#fdfdff"/>
  <g fill="#444d6d" fill-opacity=".71142">
    <path d="m127.54 137.74-0.22626 0.18285 0.23069 0.0193"/>
    <path d="m127.73 137.52 4e-3 -0.0962-0.86509 0.40419-0.12866 0.5197-0.31942 0.409-0.33273 0.0241"/>
    <path d="m127.74 138.32-3e-5 0.077-0.0355 0.13471-0.0606 0.13216 0.12276 0.0507 0.24836 0.52931-0.10647 0.14435-0.63884-0.28871-0.62552-0.58705 0.54124 0.23579 0.24843-0.34165 0.30612-0.0866"/>
    <path d="m127.4 136.87-0.16498 0.10132-0.0879 0.12487-0.0843 0.15397-0.18632 0.0529-0.0843 0.1636-0.20408 0.0529-0.0458 0.37464-0.32707 0.13548-0.022 0.3897"/>
  </g>
  <path d="m127.06 136.69-0.93563-0.0567-0.34784 0.57836-0.0386 0.56586z" fill="none"/>
  <path d="m125.74 137.78 0.4259-1.5783-0.49688-0.12512-0.42589 0.25984-0.39927 0.46195-0.22183 0.58705 0.22183 0.27909 0.27505 0.75065 0.28393 0.23097 0.15083-0.0481 0.1331-0.1636 0.0177-0.22135-0.0266-0.30796 0.0621-0.12511" fill="#444d6d" fill-opacity=".71142"/>
  <path d="m126.16 136.2-0.72717 0.93297 0.33065 0.48759 0.62546-0.46055 0.0991-0.57739 0.11693-0.0678 0.45123 0.1766 0.22182 9e-3 0.0798-0.31759-0.25731-0.25984-0.69208-0.0866-0.24843 0.16361" fill="#444d6d" fill-opacity=".71142"/>
  </g>
</g>
</svg>